<?xml version="1.0" encoding="UTF-8"?>
<svg id="_레이어_1" data-name="레이어_1" xmlns="http://www.w3.org/2000/svg" viewBox="0 0 1000 1000">
  <defs>
    <style>
      .cls-1 {
        fill: #fff;
      }
    </style>
  </defs>
  <path class="cls-1" d="M659.71,441.84c51.67-9.46,105.43,19.18,127.44,68.65,22.93,51.55,14.62,99.53-20.53,142.66-22.44,27.54-52.93,41.71-88.1,42.6-58.15,1.49-116.35,1.29-174.52,1.52-52.13.21-104.26.16-156.39-.04-19.31-.07-38.6-1.82-56.63-9.22-29.87-12.26-53.45-32.22-70.11-60.11-11.08-18.54-19.17-38.38-20.47-59.92-3.84-63.5,20.23-113.29,75.51-146.31,18.18-10.86,38.42-16.23,59.79-15.85,4.31.08,6.13-1.38,7.93-5.03,24.43-49.51,62.7-81.63,117.18-93.93,78.99-17.83,152.06,22.01,182.44,83.04,6.94,13.95,9.94,29.87,14.71,44.89.69,2.16,1.11,4.41,1.75,7.03ZM509.24,668.44v-.03c50.47,0,100.94.21,151.4-.16,11.42-.08,23.18-.76,34.18-3.54,49.22-12.46,82.71-61.54,73.73-115.18-5.27-31.43-21.96-55.63-50.75-70.43-21.7-11.16-44.69-10.24-67.84-6.03-9.11,1.66-15.65-2.86-16.97-12.03-.83-5.76-1.6-11.54-2.74-17.25-5.12-25.83-14.74-49.65-32.97-69.12-34.17-36.48-77.17-48.17-125.05-40.07-53.27,9.02-88.68,41.11-107.42,91.56-2.4,6.45-5.99,9.41-12.93,9.25-14.22-.34-28.47-.67-42.29,3.82-28.15,9.13-48.48,27.28-63.89,52.38-42.09,68.55-2.47,137.63,41.65,162.75,21.77,12.39,45.75,13.88,69.86,14,50.68.27,101.36.08,152.03.08Z"/>
  <path class="cls-1" d="M398.73,555.33c-21.45-19.64-42.57-38.97-63.69-58.3-4.69-4.29-5.2-9.63-2.57-14.83,3-5.92,7.67-10.53,14.83-11.02,1.56-.11,3.53,1.17,4.82,2.35,26.23,24.01,52.47,48,78.49,72.23,6.55,6.1,5.57,14.53-1.99,21.25-14.06,12.51-28.28,24.84-42.4,37.28-10.67,9.4-21.26,18.89-31.96,28.26-4.7,4.11-9.77,4.12-14.94.8-4.98-3.2-8.25-9.91-6.34-15.09,1.31-3.56,3.55-7.19,6.34-9.74,17.6-16.08,35.47-31.87,53.26-47.76,2.02-1.8,4.06-3.58,6.16-5.43Z"/>
  <path class="cls-1" d="M510.77,601.99c15.47,0,30.94-.05,46.41,0,10.16.04,14.07,3.11,14.18,10.85.2,14.32-2.78,18.5-14.11,18.56-31.35.15-62.71.16-94.06.04-10.82-.04-14-3.94-13.86-15.91.12-9.85,3.93-13.49,14.42-13.52,15.68-.05,31.35-.01,47.03-.02Z"/>
</svg>