<?xml version="1.0" encoding="UTF-8"?>
<svg id="_레이어_1" data-name="레이어_1" xmlns="http://www.w3.org/2000/svg" viewBox="0 0 1000 1000">
  <defs>
    <style>
      .cls-1 {
        fill: #324053;
      }
    </style>
  </defs>
  <g>
    <path class="cls-1" d="M165.08,632.54c16.14,0,31.95-.1,47.76.03,12.24.1,23.85,2.99,34.43,9.22,17.15,10.09,25.2,26.1,27.62,45.09,1.47,11.54.5,23.11-3.86,34.16-9.26,23.51-28.12,35.17-51.7,37.98-17.75,2.12-35.96.42-54.25.42v-126.9ZM189.28,737.43c14.21,1.34,24.64.53,33.4-2.55,17.57-6.16,28.06-20.87,27.73-38.88-.33-18.3-11.68-34.31-29.33-38.63-10.14-2.48-20.94-2.28-31.8-3.33v83.38Z"/>
    <path class="cls-1" d="M415.55,753.18v42.67h-25.09v-127.33h24.72v9.98c10.15-9.55,21.52-12.75,34.11-11.03,12.54,1.72,22.6,8.1,30.17,18.13,11.7,15.51,12.41,42.61-2.31,59.75-15.81,18.41-36.88,21.22-61.61,7.84ZM414.48,715.09c.03,17.47,8.18,26.11,24.27,25.69,10.59-.28,18.26-5.25,22.34-14.97,4.55-10.85,3.23-21.35-4.61-30.19-7.03-7.92-16.21-9.31-26.15-6.1-11.26,3.63-15.87,11.08-15.85,25.58Z"/>
    <path class="cls-1" d="M375.63,735.56c-4.18,11.01-10.78,18.98-21.41,22.91-13.19,4.88-26.65,5.23-39.92.51-15.94-5.66-24.65-17.72-27.61-33.91-2.96-16.22.25-31.15,11.17-43.95,6.45-7.57,14.89-11.97,24.52-13.59,35.01-5.89,52.95,17.62,54.46,42.74.22,3.58.03,7.19.03,11.42h-66.39c-.99,9.71,8.74,19.89,19.42,20.81,8.37.73,15.29-2,21.24-7.85,1.1-1.08,3.17-1.85,4.68-1.7,6.49.63,12.95,1.66,19.8,2.59ZM352.95,704.07c-1.78-11.17-9.7-18.04-20.58-18.09-11.46-.04-20.15,7.06-22.05,18.09h42.63Z"/>
    <path class="cls-1" d="M536.61,715.03c-.31-27.39,20.08-47.96,47.84-48.2,24.34-.22,49.17,15.8,49.13,47.48-.04,31.73-22.71,46.87-46.72,47.85-28.03,1.15-50.93-18.04-50.25-47.13ZM609.45,714.78c.01-14.39-11.18-26.65-24.28-26.61-13.23.04-24.18,11.53-24.26,25.47-.08,14.81,10.85,26.94,24.3,26.98,13.39.04,24.23-11.52,24.24-25.84Z"/>
    <path class="cls-1" d="M834.92,668.21c-17.66,43.02-35.05,85.4-52.48,127.87h-24.08c.68-1.86,1.26-3.51,1.9-5.14,2.51-6.39,4.38-13.15,7.7-19.09,5.11-9.15,3.77-17.23-.34-26.4-11.33-25.31-21.8-51-32.89-77.21,8.37,0,16.42-.13,24.46.17,1.01.04,2.27,2.23,2.84,3.66,7.18,17.97,14.26,35.97,21.36,53.97.39.99.81,1.97,1.6,3.88,5.45-13.91,10.59-26.99,15.71-40.08,2.44-6.25,4.71-12.58,7.38-18.73.56-1.29,2.51-2.73,3.87-2.78,7.36-.27,14.73-.13,22.98-.13Z"/>
    <path class="cls-1" d="M632.51,759.53c11.9-16.1,23.22-31.43,34.68-46.92-10.88-14.72-21.55-29.17-32.8-44.4,9.3,0,17.96-.07,26.62.1.94.02,2.05,1.29,2.74,2.23,5.87,8.11,11.67,16.27,17.74,24.77,5.83-8.08,11.5-16.2,17.5-24.05,1.18-1.54,3.64-2.86,5.56-2.95,7.62-.33,15.27-.14,24.02-.14-11.16,15.2-21.76,29.63-32.66,44.47,11.34,15.29,22.74,30.67,34.77,46.89-9.71,0-18.28.12-26.83-.13-1.29-.04-2.83-1.63-3.75-2.88-6.37-8.69-12.6-17.48-19.21-26.71-6.32,8.81-12.47,17.21-18.42,25.76-1.92,2.76-3.87,4.27-7.57,4.07-7.18-.39-14.4-.12-22.39-.12Z"/>
    <path class="cls-1" d="M522.59,759.27h-23.23v-126.4h23.23v126.4Z"/>
  </g>
  <g>
    <path class="cls-1" d="M659.71,343.16c51.67-9.46,105.43,19.18,127.44,68.65,22.93,51.55,14.62,99.53-20.53,142.66-22.44,27.54-52.93,41.71-88.1,42.6-58.15,1.49-116.35,1.29-174.52,1.52-52.13.21-104.26.16-156.39-.04-19.31-.07-38.6-1.82-56.63-9.22-29.87-12.26-53.45-32.22-70.11-60.11-11.08-18.54-19.17-38.38-20.47-59.92-3.84-63.5,20.23-113.29,75.51-146.31,18.18-10.86,38.42-16.23,59.79-15.85,4.31.08,6.13-1.38,7.93-5.03,24.43-49.51,62.7-81.63,117.18-93.93,78.99-17.83,152.06,22.01,182.44,83.04,6.94,13.95,9.94,29.87,14.71,44.89.69,2.16,1.11,4.41,1.75,7.03ZM509.24,569.77v-.03c50.47,0,100.94.21,151.4-.16,11.42-.08,23.18-.76,34.18-3.54,49.22-12.46,82.71-61.54,73.73-115.18-5.27-31.43-21.96-55.63-50.75-70.43-21.7-11.16-44.69-10.24-67.84-6.03-9.11,1.66-15.65-2.86-16.97-12.03-.83-5.76-1.6-11.54-2.74-17.25-5.12-25.83-14.74-49.65-32.97-69.12-34.17-36.48-77.17-48.17-125.05-40.07-53.27,9.02-88.68,41.11-107.42,91.56-2.4,6.45-5.99,9.41-12.93,9.25-14.22-.34-28.47-.67-42.29,3.82-28.15,9.13-48.48,27.28-63.89,52.38-42.09,68.55-2.47,137.63,41.65,162.75,21.77,12.39,45.75,13.88,69.86,14,50.68.27,101.36.08,152.03.08Z"/>
    <path class="cls-1" d="M398.73,456.66c-21.45-19.64-42.57-38.97-63.69-58.3-4.69-4.29-5.2-9.63-2.57-14.83,3-5.92,7.67-10.53,14.83-11.02,1.56-.11,3.53,1.17,4.82,2.35,26.23,24.01,52.47,48,78.49,72.23,6.55,6.1,5.57,14.53-1.99,21.25-14.06,12.51-28.28,24.84-42.4,37.28-10.67,9.4-21.26,18.89-31.96,28.26-4.7,4.11-9.77,4.12-14.94.8-4.98-3.2-8.25-9.91-6.34-15.09,1.31-3.56,3.55-7.19,6.34-9.74,17.6-16.08,35.47-31.87,53.26-47.76,2.02-1.8,4.06-3.58,6.16-5.43Z"/>
    <path class="cls-1" d="M510.77,503.31c15.47,0,30.94-.05,46.41,0,10.16.04,14.07,3.11,14.18,10.85.2,14.32-2.78,18.5-14.11,18.56-31.35.15-62.71.16-94.06.04-10.82-.04-14-3.94-13.86-15.91.12-9.85,3.93-13.49,14.42-13.52,15.68-.05,31.35-.01,47.03-.02Z"/>
  </g>
</svg>