<svg version="1.1" id="Layer_1" xmlns="http://www.w3.org/2000/svg" xmlns:xlink="http://www.w3.org/1999/xlink" x="0px" y="0px"
	 width="100%" viewBox="0 0 500 500" enable-background="new 0 0 500 500" xml:space="preserve">
<path fill="#000000" opacity="1.000000" stroke="none" 
	d="
M227.000000,501.000000 
	C151.333359,501.000000 76.166702,501.000000 1.000040,501.000000 
	C1.000027,334.333405 1.000027,167.666779 1.000013,1.000130 
	C167.666565,1.000087 334.333130,1.000087 500.999756,1.000043 
	C500.999847,167.666534 500.999847,334.333069 500.999939,500.999817 
	C409.833344,501.000000 318.666656,501.000000 227.000000,501.000000 
M230.260117,122.814186 
	C205.202377,124.643875 187.364929,137.459183 175.666458,159.193893 
	C174.283859,161.762650 173.053726,162.287613 170.498154,162.429092 
	C139.243668,164.159454 114.866623,194.460403 119.377419,226.795914 
	C123.285934,254.814026 144.916733,276.509094 177.244095,276.262390 
	C213.199554,275.987976 249.159668,276.367523 285.116272,276.178894 
	C297.446869,276.114197 309.824951,276.936554 321.810150,271.974976 
	C352.414612,259.305450 362.368500,218.418640 341.495331,193.051239 
	C330.279877,179.421005 315.547363,174.449249 298.027771,175.853775 
	C297.734741,174.469177 297.439331,173.044418 297.131226,171.622406 
	C294.740143,160.586823 290.211884,150.673325 282.191772,142.497604 
	C268.141052,128.174286 251.266861,121.286842 230.260117,122.814186 
M122.581490,351.082123 
	C129.182907,346.480469 132.309433,339.796814 134.078400,332.216797 
	C137.677734,316.793457 129.584320,299.771576 115.989304,294.720642 
	C103.309090,290.009613 90.200081,292.752289 77.207718,292.036133 
	C77.207718,314.391418 77.207718,336.000458 77.207718,358.203735 
	C84.240227,358.203735 91.157440,357.995605 98.056953,358.256012 
	C106.820190,358.586792 114.803024,356.533813 122.581490,351.082123 
M208.239151,314.075165 
	C205.127563,306.648407 198.834503,311.989594 194.113174,309.898743 
	C194.113174,332.755219 194.113174,354.926025 194.113174,376.876892 
	C198.738571,376.876892 202.971466,376.876892 207.577820,376.876892 
	C207.577820,369.599609 207.577820,362.710724 207.577820,356.928192 
	C213.208939,357.728027 218.669037,359.464539 223.962372,359.053467 
	C234.667694,358.222137 244.722046,348.641174 244.915710,334.715881 
	C245.051880,324.924957 241.134888,317.155396 232.495865,312.664581 
	C224.718109,308.621460 216.573532,308.515869 208.239151,314.075165 
M186.920044,328.668823 
	C186.591080,327.553894 186.325104,326.415680 185.923599,325.327515 
	C180.698517,311.166748 168.906326,306.500214 155.062378,311.242676 
	C138.679779,316.854767 136.594299,335.547821 142.809265,347.883850 
	C148.684494,359.545593 166.721512,363.384735 178.587723,355.914062 
	C182.329834,353.558136 185.300385,350.481720 185.951019,345.734650 
	C180.249557,344.255066 175.196976,342.581390 170.085159,347.287048 
	C166.681213,350.420532 161.946411,349.865051 157.969513,347.291046 
	C154.835861,345.262848 152.493301,342.608276 152.958069,338.090240 
	C164.449249,338.090240 175.712799,338.090240 187.133530,338.090240 
	C187.133530,334.994690 187.133530,332.230591 186.920044,328.668823 
M270.673981,327.263855 
	C266.338287,340.942657 274.183594,355.149567 287.471008,358.531067 
	C298.265228,361.278076 307.163940,358.566895 314.539337,350.884216 
	C321.059601,344.092316 322.232849,331.525208 317.899567,323.009552 
	C313.637177,314.633270 303.245361,309.072388 293.148895,309.764893 
	C282.633301,310.486176 273.444946,317.442749 270.673981,327.263855 
M396.942352,338.389374 
	C394.672546,332.389435 392.316406,326.420410 390.157227,320.380890 
	C387.997314,314.339233 386.400940,307.816681 377.481018,310.175354 
	C376.209106,310.511719 374.801727,310.335846 373.457062,310.397034 
	C373.614990,311.758026 373.472809,313.243225 373.976898,314.460907 
	C379.537476,327.894043 385.272430,341.255554 390.740173,354.725739 
	C391.435089,356.437683 391.386658,358.827332 390.800140,360.613159 
	C389.019928,366.033173 386.806641,371.310944 384.531189,377.246307 
	C387.485962,377.246307 389.793396,377.056061 392.057220,377.289307 
	C395.784332,377.673309 397.730988,376.746246 399.302429,372.705658 
	C405.832733,355.915222 413.017395,339.379883 419.908997,322.729004 
	C421.508728,318.863892 422.900299,314.912659 424.657043,310.292511 
	C419.916077,310.292511 416.072723,310.125366 412.265472,310.421661 
	C411.418427,310.487579 410.407135,312.066528 409.966125,313.150177 
	C406.614990,321.384186 403.433929,329.687775 400.032135,337.900146 
	C399.756287,338.566071 398.231110,338.714478 396.942352,338.389374 
M327.604065,347.055603 
	C325.059998,350.438965 322.515961,353.822296 319.603607,357.695404 
	C322.392609,357.894531 324.516113,357.829407 326.546417,358.233093 
	C331.917786,359.301178 335.221252,356.909576 337.824127,352.439911 
	C339.687958,349.239258 342.156158,346.390594 344.632080,343.005707 
	C347.702240,347.275360 350.401825,351.200531 353.305084,354.968811 
	C354.242950,356.186157 355.650909,357.734039 356.955963,357.848145 
	C361.159424,358.215607 365.415222,357.985016 370.642487,357.985016 
	C365.091919,350.393219 360.201721,343.568695 355.149658,336.866119 
	C353.302185,334.415161 353.042114,332.662628 355.208099,329.994537 
	C360.208771,323.834747 364.706635,317.266754 369.820435,310.303314 
	C365.851624,310.303314 362.729828,310.500244 359.644287,310.250092 
	C356.297791,309.978760 354.089661,311.030426 352.301270,314.007172 
	C350.165741,317.561707 347.451782,320.768738 344.419128,324.902252 
	C339.654877,314.019775 333.617920,306.581665 321.136108,310.956726 
	C321.136108,311.039612 321.003571,311.455414 321.155518,311.661682 
	C324.678711,316.444031 328.261108,321.182892 331.774658,325.972229 
	C337.238617,333.420166 337.222809,333.435242 332.014191,340.769440 
	C330.671082,342.660614 329.307556,344.537323 327.604065,347.055603 
M250.190369,355.046967 
	C251.112289,356.025818 251.953079,357.735779 252.971069,357.848724 
	C256.238953,358.211304 259.572327,357.983551 263.197266,357.983551 
	C263.197266,335.920166 263.197266,314.130493 263.197266,292.276550 
	C258.718872,292.276550 254.600113,292.276550 250.191956,292.276550 
	C250.191956,313.042389 250.191956,333.585175 250.190369,355.046967 
z"/>
<path fill="#F8F8F3" opacity="1.000000" stroke="none" 
	d="
M230.693970,122.813004 
	C251.266861,121.286842 268.141052,128.174286 282.191772,142.497604 
	C290.211884,150.673325 294.740143,160.586823 297.131226,171.622406 
	C297.439331,173.044418 297.734741,174.469177 298.027771,175.853775 
	C315.547363,174.449249 330.279877,179.421005 341.495331,193.051239 
	C362.368500,218.418640 352.414612,259.305450 321.810150,271.974976 
	C309.824951,276.936554 297.446869,276.114197 285.116272,276.178894 
	C249.159668,276.367523 213.199554,275.987976 177.244095,276.262390 
	C144.916733,276.509094 123.285934,254.814026 119.377419,226.795914 
	C114.866623,194.460403 139.243668,164.159454 170.498154,162.429092 
	C173.053726,162.287613 174.283859,161.762650 175.666458,159.193893 
	C187.364929,137.459183 205.202377,124.643875 230.693970,122.813004 
M255.499893,264.690186 
	C268.659760,264.689362 281.824493,264.899353 294.977356,264.595795 
	C301.241364,264.451172 307.883484,264.467346 313.658356,262.433990 
	C330.178528,256.617249 339.099426,244.732178 340.354187,226.802551 
	C342.039673,202.717667 321.163025,183.728195 297.383026,188.371429 
	C289.841309,189.844009 287.712341,188.343750 286.853607,180.889908 
	C284.024231,156.329742 267.267273,137.655182 241.408844,134.681992 
	C218.586319,132.057877 197.051987,142.598236 187.512131,162.784225 
	C183.577972,171.108734 179.615097,176.348999 169.825180,174.137314 
	C169.511215,174.066376 169.158249,174.120255 168.830338,174.165619 
	C151.004196,176.632858 135.542801,191.728439 131.413422,210.690979 
	C127.781387,227.369659 136.321487,247.713303 150.555695,257.311218 
	C160.361374,263.923004 171.446243,264.489197 182.537781,264.610748 
	C206.522552,264.873627 230.512222,264.690948 255.499893,264.690186 
z"/>
<path fill="#F8F9F4" opacity="1.000000" stroke="none" 
	d="
M122.304688,351.321075 
	C114.803024,356.533813 106.820190,358.586792 98.056953,358.256012 
	C91.157440,357.995605 84.240227,358.203735 77.207718,358.203735 
	C77.207718,336.000458 77.207718,314.391418 77.207718,292.036133 
	C90.200081,292.752289 103.309090,290.009613 115.989304,294.720642 
	C129.584320,299.771576 137.677734,316.793457 134.078400,332.216797 
	C132.309433,339.796814 129.182907,346.480469 122.304688,351.321075 
M120.651321,331.569641 
	C124.270576,311.583649 110.138878,301.356110 90.321953,304.532349 
	C90.321953,318.243225 90.321953,331.968170 90.321953,345.651184 
	C106.036156,347.965790 114.931358,343.941681 120.651321,331.569641 
z"/>
<path fill="#F8F8F4" opacity="1.000000" stroke="none" 
	d="
M208.636383,314.022400 
	C216.573532,308.515869 224.718109,308.621460 232.495865,312.664581 
	C241.134888,317.155396 245.051880,324.924957 244.915710,334.715881 
	C244.722046,348.641174 234.667694,358.222137 223.962372,359.053467 
	C218.669037,359.464539 213.208939,357.728027 207.577820,356.928192 
	C207.577820,362.710724 207.577820,369.599609 207.577820,376.876892 
	C202.971466,376.876892 198.738571,376.876892 194.113174,376.876892 
	C194.113174,354.926025 194.113174,332.755219 194.113174,309.898743 
	C198.834503,311.989594 205.127563,306.648407 208.636383,314.022400 
M221.856293,347.853851 
	C223.211624,347.259125 224.716644,346.873993 225.895508,346.032166 
	C230.237656,342.931396 232.534698,338.526733 231.891739,333.291748 
	C231.213531,327.769501 228.516510,323.204102 222.714615,321.472473 
	C217.631729,319.955444 212.853577,321.278442 209.612213,325.169281 
	C205.425507,330.194916 206.039795,336.521545 208.078674,342.125000 
	C210.164230,347.856689 215.703918,348.223969 221.856293,347.853851 
z"/>
<path fill="#F6F7F2" opacity="1.000000" stroke="none" 
	d="
M187.026794,329.067657 
	C187.133530,332.230591 187.133530,334.994690 187.133530,338.090240 
	C175.712799,338.090240 164.449249,338.090240 152.958069,338.090240 
	C152.493301,342.608276 154.835861,345.262848 157.969513,347.291046 
	C161.946411,349.865051 166.681213,350.420532 170.085159,347.287048 
	C175.196976,342.581390 180.249557,344.255066 185.951019,345.734650 
	C185.300385,350.481720 182.329834,353.558136 178.587723,355.914062 
	C166.721512,363.384735 148.684494,359.545593 142.809265,347.883850 
	C136.594299,335.547821 138.679779,316.854767 155.062378,311.242676 
	C168.906326,306.500214 180.698517,311.166748 185.923599,325.327515 
	C186.325104,326.415680 186.591080,327.553894 187.026794,329.067657 
M155.839935,329.150269 
	C161.922058,329.150269 168.004166,329.150269 174.182327,329.150269 
	C172.981659,323.086639 169.713394,320.189789 164.362518,320.000641 
	C159.287552,319.821289 154.225891,323.011230 153.112122,327.310944 
	C153.001297,327.738770 154.291672,328.529541 155.839935,329.150269 
z"/>
<path fill="#F7F7F3" opacity="1.000000" stroke="none" 
	d="
M270.838928,326.897461 
	C273.444946,317.442749 282.633301,310.486176 293.148895,309.764893 
	C303.245361,309.072388 313.637177,314.633270 317.899567,323.009552 
	C322.232849,331.525208 321.059601,344.092316 314.539337,350.884216 
	C307.163940,358.566895 298.265228,361.278076 287.471008,358.531067 
	C274.183594,355.149567 266.338287,340.942657 270.838928,326.897461 
M302.634827,345.291748 
	C304.139984,342.268402 306.450470,339.382568 306.994751,336.195160 
	C308.449829,327.673767 300.502655,319.455200 292.995667,321.346222 
	C288.070465,322.586884 284.209229,325.297455 283.204590,330.789642 
	C282.101074,336.822388 283.295502,342.022644 288.577179,345.762909 
	C293.062805,348.939484 297.520752,348.488831 302.634827,345.291748 
z"/>
<path fill="#F5F5F1" opacity="1.000000" stroke="none" 
	d="
M397.114441,338.746338 
	C398.231110,338.714478 399.756287,338.566071 400.032135,337.900146 
	C403.433929,329.687775 406.614990,321.384186 409.966125,313.150177 
	C410.407135,312.066528 411.418427,310.487579 412.265472,310.421661 
	C416.072723,310.125366 419.916077,310.292511 424.657043,310.292511 
	C422.900299,314.912659 421.508728,318.863892 419.908997,322.729004 
	C413.017395,339.379883 405.832733,355.915222 399.302429,372.705658 
	C397.730988,376.746246 395.784332,377.673309 392.057220,377.289307 
	C389.793396,377.056061 387.485962,377.246307 384.531189,377.246307 
	C386.806641,371.310944 389.019928,366.033173 390.800140,360.613159 
	C391.386658,358.827332 391.435089,356.437683 390.740173,354.725739 
	C385.272430,341.255554 379.537476,327.894043 373.976898,314.460907 
	C373.472809,313.243225 373.614990,311.758026 373.457062,310.397034 
	C374.801727,310.335846 376.209106,310.511719 377.481018,310.175354 
	C386.400940,307.816681 387.997314,314.339233 390.157227,320.380890 
	C392.316406,326.420410 394.672546,332.389435 397.114441,338.746338 
z"/>
<path fill="#F5F5F1" opacity="1.000000" stroke="none" 
	d="
M327.778748,346.738159 
	C329.307556,344.537323 330.671082,342.660614 332.014191,340.769440 
	C337.222809,333.435242 337.238617,333.420166 331.774658,325.972229 
	C328.261108,321.182892 324.678711,316.444031 321.155518,311.661682 
	C321.003571,311.455414 321.136108,311.039612 321.136108,310.956726 
	C333.617920,306.581665 339.654877,314.019775 344.419128,324.902252 
	C347.451782,320.768738 350.165741,317.561707 352.301270,314.007172 
	C354.089661,311.030426 356.297791,309.978760 359.644287,310.250092 
	C362.729828,310.500244 365.851624,310.303314 369.820435,310.303314 
	C364.706635,317.266754 360.208771,323.834747 355.208099,329.994537 
	C353.042114,332.662628 353.302185,334.415161 355.149658,336.866119 
	C360.201721,343.568695 365.091919,350.393219 370.642487,357.985016 
	C365.415222,357.985016 361.159424,358.215607 356.955963,357.848145 
	C355.650909,357.734039 354.242950,356.186157 353.305084,354.968811 
	C350.401825,351.200531 347.702240,347.275360 344.632080,343.005707 
	C342.156158,346.390594 339.687958,349.239258 337.824127,352.439911 
	C335.221252,356.909576 331.917786,359.301178 326.546417,358.233093 
	C324.516113,357.829407 322.392609,357.894531 319.603607,357.695404 
	C322.515961,353.822296 325.059998,350.438965 327.778748,346.738159 
z"/>
<path fill="#F3F4EF" opacity="1.000000" stroke="none" 
	d="
M250.191162,354.587463 
	C250.191956,333.585175 250.191956,313.042389 250.191956,292.276550 
	C254.600113,292.276550 258.718872,292.276550 263.197266,292.276550 
	C263.197266,314.130493 263.197266,335.920166 263.197266,357.983551 
	C259.572327,357.983551 256.238953,358.211304 252.971069,357.848724 
	C251.953079,357.735779 251.112289,356.025818 250.191162,354.587463 
z"/>
<path fill="#020202" opacity="1.000000" stroke="none" 
	d="
M254.999878,264.690369 
	C230.512222,264.690948 206.522552,264.873627 182.537781,264.610748 
	C171.446243,264.489197 160.361374,263.923004 150.555695,257.311218 
	C136.321487,247.713303 127.781387,227.369659 131.413422,210.690979 
	C135.542801,191.728439 151.004196,176.632858 168.830338,174.165619 
	C169.158249,174.120255 169.511215,174.066376 169.825180,174.137314 
	C179.615097,176.348999 183.577972,171.108734 187.512131,162.784225 
	C197.051987,142.598236 218.586319,132.057877 241.408844,134.681992 
	C267.267273,137.655182 284.024231,156.329742 286.853607,180.889908 
	C287.712341,188.343750 289.841309,189.844009 297.383026,188.371429 
	C321.163025,183.728195 342.039673,202.717667 340.354187,226.802551 
	C339.099426,244.732178 330.178528,256.617249 313.658356,262.433990 
	C307.883484,264.467346 301.241364,264.451172 294.977356,264.595795 
	C281.824493,264.899353 268.659760,264.689362 254.999878,264.690369 
M188.948105,227.447327 
	C183.611160,232.158524 178.198074,236.787216 172.967789,241.613998 
	C170.142929,244.220917 169.662460,247.329620 172.494263,250.336533 
	C175.060242,253.061218 177.736053,252.641571 180.367203,250.306046 
	C189.759598,241.968903 199.158981,233.639648 208.563126,225.315765 
	C211.985977,222.286072 211.912354,219.296188 208.594925,216.225128 
	C198.996902,207.339920 189.418198,198.433838 179.838959,189.528366 
	C177.481384,187.336624 175.247757,187.443436 172.819489,189.541092 
	C168.759628,193.048203 168.615524,195.453537 172.715027,199.222656 
	C180.464996,206.348038 188.289383,213.392487 196.312973,220.679611 
	C193.813751,222.954651 191.632782,224.939972 188.948105,227.447327 
M263.970673,242.691986 
	C263.706573,239.041351 260.968903,238.725906 258.283539,238.712189 
	C246.158218,238.650223 234.031891,238.758774 221.906952,238.668106 
	C217.591141,238.635834 215.992920,240.853073 216.065353,244.787521 
	C216.135742,248.609894 217.865417,250.374268 221.951523,250.312805 
	C233.742004,250.135498 245.539352,250.119095 257.329041,250.324310 
	C262.280121,250.410507 264.452087,248.467819 263.970673,242.691986 
z"/>
<path fill="#050505" opacity="1.000000" stroke="none" 
	d="
M120.441071,331.926727 
	C114.931358,343.941681 106.036156,347.965790 90.321953,345.651184 
	C90.321953,331.968170 90.321953,318.243225 90.321953,304.532349 
	C110.138878,301.356110 124.270576,311.583649 120.441071,331.926727 
z"/>
<path fill="#060606" opacity="1.000000" stroke="none" 
	d="
M221.446777,347.921570 
	C215.703918,348.223969 210.164230,347.856689 208.078674,342.125000 
	C206.039795,336.521545 205.425507,330.194916 209.612213,325.169281 
	C212.853577,321.278442 217.631729,319.955444 222.714615,321.472473 
	C228.516510,323.204102 231.213531,327.769501 231.891739,333.291748 
	C232.534698,338.526733 230.237656,342.931396 225.895508,346.032166 
	C224.716644,346.873993 223.211624,347.259125 221.446777,347.921570 
z"/>
<path fill="#070707" opacity="1.000000" stroke="none" 
	d="
M155.385834,329.151062 
	C154.291672,328.529541 153.001297,327.738770 153.112122,327.310944 
	C154.225891,323.011230 159.287552,319.821289 164.362518,320.000641 
	C169.713394,320.189789 172.981659,323.086639 174.182327,329.150269 
	C168.004166,329.150269 161.922058,329.150269 155.385834,329.151062 
z"/>
<path fill="#050505" opacity="1.000000" stroke="none" 
	d="
M302.299835,345.483032 
	C297.520752,348.488831 293.062805,348.939484 288.577179,345.762909 
	C283.295502,342.022644 282.101074,336.822388 283.204590,330.789642 
	C284.209229,325.297455 288.070465,322.586884 292.995667,321.346222 
	C300.502655,319.455200 308.449829,327.673767 306.994751,336.195160 
	C306.450470,339.382568 304.139984,342.268402 302.299835,345.483032 
z"/>
<path fill="#F6F6F2" opacity="1.000000" stroke="none" 
	d="
M189.199966,227.186310 
	C191.632782,224.939972 193.813751,222.954651 196.312973,220.679611 
	C188.289383,213.392487 180.464996,206.348038 172.715027,199.222656 
	C168.615524,195.453537 168.759628,193.048203 172.819489,189.541092 
	C175.247757,187.443436 177.481384,187.336624 179.838959,189.528366 
	C189.418198,198.433838 198.996902,207.339920 208.594925,216.225128 
	C211.912354,219.296188 211.985977,222.286072 208.563126,225.315765 
	C199.158981,233.639648 189.759598,241.968903 180.367203,250.306046 
	C177.736053,252.641571 175.060242,253.061218 172.494263,250.336533 
	C169.662460,247.329620 170.142929,244.220917 172.967789,241.613998 
	C178.198074,236.787216 183.611160,232.158524 189.199966,227.186310 
z"/>
<path fill="#FBFBF7" opacity="1.000000" stroke="none" 
	d="
M263.972107,243.127960 
	C264.452087,248.467819 262.280121,250.410507 257.329041,250.324310 
	C245.539352,250.119095 233.742004,250.135498 221.951523,250.312805 
	C217.865417,250.374268 216.135742,248.609894 216.065353,244.787521 
	C215.992920,240.853073 217.591141,238.635834 221.906952,238.668106 
	C234.031891,238.758774 246.158218,238.650223 258.283539,238.712189 
	C260.968903,238.725906 263.706573,239.041351 263.972107,243.127960 
z"/>
</svg>